<svg width="100" height="100" viewBox="0 0 100 100" fill="none" xmlns="http://www.w3.org/2000/svg">
<path d="M32.9633 51.0559H29.928V47.8956C29.928 46.9675 29.1769 46.2144 28.2478 46.2144C27.3188 46.2144 26.5667 46.9675 26.5667 47.8956V51.0559H23.0543C22.1253 51.0559 21.3732 51.809 21.3732 52.7371C21.3732 53.6652 22.1253 54.4173 23.0543 54.4173H26.5667V57.9806C26.5667 58.9087 27.3188 59.6617 28.2478 59.6617C29.1769 59.6617 29.928 58.9087 29.928 57.9806V54.4173H32.9633C33.8924 54.4173 34.6445 53.6652 34.6445 52.7371C34.6445 51.809 33.8924 51.0559 32.9633 51.0559Z" fill="#E31937"/>
<path d="M76.9908 51.257H66.9058C65.9767 51.257 65.2256 52.0091 65.2256 52.9382C65.2256 53.8663 65.9767 54.6184 66.9058 54.6184H76.9908C77.9198 54.6184 78.6719 53.8663 78.6719 52.9382C78.6719 52.0091 77.9198 51.257 76.9908 51.257Z" fill="#E31937"/>
<path d="M46.7368 21.0028H50.8858L46.3511 31.3254C46.0126 32.0967 46.2963 32.9998 47.0176 33.4374C47.2879 33.6028 47.5898 33.6817 47.889 33.6817C48.3833 33.6817 48.869 33.4643 49.1989 33.0565L64.8525 13.654C65.2978 13.1029 65.3487 12.3326 64.9823 11.7276C64.6168 11.1227 63.9138 10.8101 63.2146 10.9505L57.6325 12.0661L60.8573 2.2033C61.117 1.41274 60.7592 0.553885 60.0177 0.179761C59.2723 -0.194364 58.3712 0.0316496 57.8903 0.707767L45.3663 18.3474C45.0018 18.861 44.9546 19.5332 45.2432 20.092C45.5317 20.6518 46.1078 21.0028 46.7368 21.0028ZM54.2212 11.6824L53.5431 13.7569C53.3575 14.3253 53.4874 14.9485 53.8836 15.3958C54.2818 15.842 54.8829 16.0459 55.4705 15.9276L59.3214 15.1582L54.5001 21.1317L54.9992 19.9987C55.2272 19.4784 55.1762 18.8783 54.8665 18.4032C54.5568 17.9281 54.0279 17.6405 53.4595 17.6405H49.9914L54.2212 11.6824Z" fill="#E31937"/>
<path d="M93.7986 86.5535H90.4372V39.4918C90.4372 38.5627 89.6851 37.8106 88.7561 37.8106H80.3522V31.0869C80.3522 30.1588 79.6011 29.4067 78.672 29.4067H63.5445C62.6154 29.4067 61.8633 30.1588 61.8633 31.0869V37.8106H36.6518V31.0869C36.6518 30.1588 35.8997 29.4067 34.9706 29.4067H19.8441C18.915 29.4067 18.1629 30.1588 18.1629 31.0869V37.8106H11.4643C10.5352 37.8106 9.78406 38.5627 9.78406 39.4918V86.5535H6.39771C5.46865 86.5535 4.71655 87.3066 4.71655 88.2347V98.3187C4.71655 99.2478 5.46865 99.9999 6.39771 99.9999H11.4402C11.4441 99.9999 11.4479 99.997 11.4518 99.997C11.4566 99.997 11.4604 99.9999 11.4643 99.9999H93.7986C94.7276 99.9999 95.4797 99.2478 95.4797 98.3187V88.2347C95.4797 87.3066 94.7276 86.5535 93.7986 86.5535ZM65.2257 32.7681H76.9909V37.8106H65.2257V32.7681ZM21.5243 32.7681H33.2904V37.8106H21.5243V32.7681ZM13.1454 41.1719H87.0759V81.511H13.1454V41.1719ZM8.0779 89.9149H9.78406V96.6385H8.0779V89.9149ZM13.1454 84.8724H87.0759V96.6385H13.1454V84.8724ZM92.1184 96.6385H90.4372V89.9149H92.1184V96.6385Z" fill="#E31937"/>
</svg>
