<svg width="75" height="91" viewBox="0 0 75 91" fill="none" xmlns="http://www.w3.org/2000/svg">
<path d="M63.9385 85.0969V91H65.8136V87.0646H72.6889V91H74.564V85.1201L63.9385 85.0969Z" fill="#E31937"/>
<path d="M65.6051 83.1987H72.8509C73.8695 82.9903 74.6102 82.1106 74.8186 81.2541H63.6375C63.8458 82.1106 64.6097 83.0135 65.6051 83.1987Z" fill="#E31937"/>
<path d="M58.2205 91C59.1696 90.6064 59.6789 89.8888 59.8873 89.0786H51.4146V81.2541H49.5164V90.9768H58.2205" fill="#E31937"/>
<path d="M35.4184 83.1755H42.1086C43.1272 82.8746 43.9605 82.1106 44.1689 81.2541H33.5202V86.9951H42.2243V89.0091H35.3953C34.3304 89.3101 33.4276 90.0277 32.9646 90.9768H33.5202H44.0994V85.0738H35.4184V83.1755Z" fill="#E31937"/>
<path d="M18.8666 83.1987H26.1124C27.1309 82.9903 27.8717 82.1106 28.0801 81.2541H16.8989C17.1073 82.1106 17.8712 82.9903 18.8666 83.1987Z" fill="#E31937"/>
<path d="M18.8666 87.0415H26.1124C27.1309 86.8331 27.8717 85.9534 28.0801 85.0969H16.8989C17.1073 85.9534 17.8712 86.8331 18.8666 87.0415Z" fill="#E31937"/>
<path d="M18.8666 91H26.1124C27.1309 90.7917 27.8717 89.912 28.0801 89.0555H16.8989C17.1073 89.912 17.8712 90.7917 18.8666 91Z" fill="#E31937"/>
<path d="M0 81.2773C0.208344 82.1338 0.949122 82.9903 1.96769 83.2218H5.0234L5.18545 83.2913V90.9768H7.08369V83.2681L7.24574 83.1987H10.3014C11.32 82.944 12.0376 82.1106 12.2691 81.2541L0 81.2773Z" fill="#E31937"/>
<path d="M38.8445 67.8044L48.382 14.2368C57.4566 14.2368 60.3271 15.2322 60.7438 19.3065C60.7438 19.3065 66.8321 17.0379 69.9109 12.4312C57.9196 6.87534 45.8819 6.6207 45.8819 6.6207L38.8445 15.1859H38.8677L31.8303 6.6207C31.8303 6.6207 19.7926 6.87534 7.80127 12.4312C10.8801 17.0379 16.9684 19.3065 16.9684 19.3065C17.3851 15.2322 20.2556 14.2368 29.2607 14.2368L38.8445 67.8044Z" fill="#E31937"/>
<path d="M38.8215 4.12058C48.5211 4.05113 59.6096 5.62529 70.9528 10.5792C72.4806 7.84762 72.851 6.64386 72.851 6.64386C60.4661 1.71305 48.8452 0.0462986 38.8215 0C28.821 0.0462986 17.2 1.71305 4.79199 6.64386C4.79199 6.64386 5.34758 8.12541 6.69024 10.5792C18.0334 5.62529 29.1451 4.05113 38.8215 4.12058Z" fill="#E31937"/>
</svg>
