<svg width="100" height="100" viewBox="0 0 100 100" fill="none" xmlns="http://www.w3.org/2000/svg">
<g clip-path="url(#clip0)">
<path d="M63.3333 75H3.33333V56.6667C3.33333 53.9052 5.57187 51.6667 8.33333 51.6667H36.6667V48.3333H12.6967L23.4417 26.8417C24.004 25.7102 25.1598 24.9962 26.4233 25H61.6667V21.6667H26.4233C23.8956 21.6581 21.5831 23.0873 20.46 25.3517L8.97 48.3333H8.33333C3.73333 48.3387 0.00541667 52.0667 0 56.6667V95C0 97.7615 2.23854 100 5 100H18.3333C21.0948 100 23.3333 97.7615 23.3333 95V85H63.3333V81.6667H8.33333C8.025 81.6646 7.7175 81.6333 7.415 81.5733C7.32333 81.5567 7.23333 81.53 7.14167 81.5083C6.9375 81.4577 6.73667 81.3948 6.54 81.32C6.44667 81.2833 6.35333 81.2467 6.26333 81.205C6.06854 81.115 5.87979 81.0125 5.69833 80.8983C5.63 80.855 5.55667 80.8167 5.49 80.7717C5.2525 80.606 5.02938 80.4202 4.82333 80.2167C4.78833 80.1817 4.75833 80.14 4.72333 80.1033C4.5575 79.9279 4.40375 79.7415 4.26333 79.545C4.20833 79.4667 4.15833 79.3783 4.10833 79.3033C4.00021 79.1298 3.90208 78.95 3.815 78.765C3.775 78.6767 3.73167 78.5867 3.69667 78.495C3.675 78.4433 3.665 78.3867 3.645 78.3283H63.3333V75ZM16.6667 85H20V95C20 95.9204 19.2537 96.6667 18.3333 96.6667H16.6667V85ZM10 85H13.3333V96.6667H10V85ZM3.96667 83.735C4.24604 83.9092 4.53542 84.0667 4.83333 84.2067C5 84.2833 5.16667 84.355 5.33333 84.4217C5.65625 84.544 5.98625 84.6463 6.32167 84.7283C6.44 84.7583 6.54833 84.81 6.67 84.835V96.6667H5C4.07958 96.6667 3.33333 95.9204 3.33333 95V83.3333C3.39667 83.38 3.47167 83.415 3.53667 83.4617C3.675 83.56 3.82167 83.645 3.96667 83.735Z" fill="#E31937"/>
<path d="M35 58.3333H63.3333V55H35C32.2385 55 30 57.2385 30 60V66.6667C30 69.4281 32.2385 71.6667 35 71.6667H63.3333V68.3333H35C34.0796 68.3333 33.3333 67.5871 33.3333 66.6667V65H63.3333V61.6667H33.3333V60C33.3333 59.0796 34.0796 58.3333 35 58.3333Z" fill="#E31937"/>
<path d="M21.6667 55H11.6667C8.90529 55 6.66675 57.2385 6.66675 60V66.6667C6.66675 69.4281 8.90529 71.6667 11.6667 71.6667H21.6667C24.4282 71.6667 26.6667 69.4281 26.6667 66.6667V60C26.6667 57.2385 24.4282 55 21.6667 55ZM23.3334 66.6667C23.3334 67.5871 22.5872 68.3333 21.6667 68.3333H11.6667C10.7463 68.3333 10.0001 67.5871 10.0001 66.6667V60C10.0001 59.0796 10.7463 58.3333 11.6667 58.3333H21.6667C22.5872 58.3333 23.3334 59.0796 23.3334 60V66.6667Z" fill="#E31937"/>
<path d="M99.9999 46.6667V41.6667C99.9999 40.7463 99.2537 40 98.3332 40H91.2016L89.9149 36.14C89.688 35.4592 89.051 34.9998 88.3332 35H83.3332V32.3567C88.3522 30.2996 91.6401 25.4242 91.6666 20V1.66667C91.6666 0.74625 90.9203 0 89.9999 0H66.6666C65.7462 0 64.9999 0.74625 64.9999 1.66667V20C65.0264 25.4242 68.3143 30.2996 73.3333 32.3567V35H63.3333V33.3333H59.9999V35.6367L54.2549 38.5083C53.6899 38.7906 53.333 39.3683 53.3333 40V43.3333C53.333 43.965 53.6899 44.5427 54.2549 44.825L59.9999 47.6967V50H63.3333V48.3333H72.7899L70.9799 54.6667C70.6395 55.8469 69.5616 56.6615 68.3333 56.6667V60C71.0474 59.9915 73.4308 58.194 74.1849 55.5867L74.3516 55H79.9666L82.9666 70H78.3333V73.3333H83.6332L85.0332 80.3333C85.1916 81.1094 85.8745 81.6669 86.6666 81.6667H89.9999V85C89.9999 85.9204 89.2537 86.6667 88.3332 86.6667H73.3333C69.6514 86.6667 66.6666 89.6515 66.6666 93.3333C66.6666 97.0152 69.6514 100 73.3333 100H99.9999V96.6667H73.3333C71.4922 96.6667 69.9999 95.1744 69.9999 93.3333C69.9999 91.4923 71.4922 90 73.3333 90H88.3332C91.0947 90 93.3332 87.7615 93.3332 85V81.6667H96.6666C97.587 81.6665 98.333 80.92 98.3328 79.9996C98.3328 79.9077 98.3251 79.8158 98.3099 79.725L93.5133 50.94L99.0782 48.1667C99.646 47.8829 100.003 47.3015 99.9999 46.6667ZM59.9999 43.97L56.6666 42.3033V41.03L59.9999 39.3633V43.97ZM68.3333 3.33333H88.3332V6.66667H68.3333V3.33333ZM68.3333 20V10H88.3332V20C88.3132 24.4152 85.4157 28.301 81.1899 29.58C80.4839 29.7906 80.0001 30.44 79.9999 31.1767V35H76.6666V31.1767C76.6664 30.44 76.1826 29.7906 75.4766 29.58C71.2507 28.301 68.3533 24.4152 68.3333 20ZM75.3049 51.6667L76.2566 48.3333H78.6332L79.2999 51.6667H75.3049ZM96.6666 45.6367L90.9216 48.5083C90.2666 48.8358 89.902 49.5527 90.0232 50.275L90.2549 51.6667H86.6666V55H90.8099L91.3666 58.3333H88.3332V61.6667H91.9216L92.4766 65H89.9999V68.3333H93.0316L93.5882 71.6667H91.6666V75H94.1432L94.6982 78.3333H88.0316L81.6332 46.3333C81.4749 45.5573 80.792 44.9998 79.9999 45H63.3333V38.3333H87.1316L88.4182 42.1933C88.6451 42.8742 89.2822 43.3335 89.9999 43.3333H96.6666V45.6367Z" fill="#E31937"/>
<path d="M49.9999 40H38.3333V43.3333H49.9999V40Z" fill="#E31937"/>
<path d="M40.7497 30.1862L39.259 33.1675L49.2584 38.1672L50.7491 35.1859L40.7497 30.1862Z" fill="#E31937"/>
<path d="M49.2453 45.1759L39.2458 50.1757L40.7365 53.157L50.7359 48.1573L49.2453 45.1759Z" fill="#E31937"/>
</g>
<defs>
<clipPath id="clip0">
<rect width="100" height="100" fill="white"/>
</clipPath>
</defs>
</svg>
