<svg width="100" height="100" viewBox="0 0 100 100" fill="none" xmlns="http://www.w3.org/2000/svg">
<path d="M88.3333 3.33333H11.6667C5.22646 3.34062 0.00729167 8.55979 0 15V68.3333C0.00729167 74.7735 5.22646 79.9927 11.6667 80H37.76L33.76 93.3333H28.3333V96.6667H71.6667V93.3333H66.24L62.24 80H88.3333C94.7735 79.9927 99.9927 74.7735 100 68.3333V15C99.9927 8.55979 94.7735 3.34062 88.3333 3.33333ZM62.76 93.3333H37.24L41.24 80H58.76L62.76 93.3333ZM96.6667 68.3333C96.6612 72.9333 92.9333 76.6612 88.3333 76.6667H11.6667C7.06667 76.6612 3.33875 72.9333 3.33333 68.3333V66.6667H96.6667V68.3333ZM96.6667 63.3333H3.33333V15C3.33875 10.4 7.06667 6.67208 11.6667 6.66667H88.3333C92.9333 6.67208 96.6612 10.4 96.6667 15V63.3333Z" fill="#ffffff"/>
<path d="M69.9999 26.6667H65.8332L61.3332 20.6667C61.0185 20.2471 60.5245 20 59.9999 20H43.3333C42.8087 20 42.3147 20.2471 41.9999 20.6667L37.3816 26.8333L29.6666 28.3667C28.8905 28.525 28.333 29.2079 28.3333 30V38.3333C28.3333 39.2538 29.0795 40 29.9999 40H35.3066C36.2097 42.5921 39.043 43.9613 41.6349 43.0583C43.0676 42.5592 44.1941 41.4329 44.6933 40H55.3066C56.2097 42.5921 59.043 43.9613 61.6349 43.0583C63.0676 42.5592 64.1941 41.4329 64.6933 40H69.9999C70.9203 40 71.6666 39.2538 71.6666 38.3333V28.3333C71.6666 27.4129 70.9203 26.6667 69.9999 26.6667ZM39.9999 40C39.0795 40 38.3333 39.2538 38.3333 38.3333C38.3333 37.4129 39.0795 36.6667 39.9999 36.6667C40.9203 36.6667 41.6666 37.4129 41.6666 38.3333C41.6666 39.2538 40.9203 40 39.9999 40ZM59.9999 40C59.0795 40 58.3332 39.2538 58.3332 38.3333C58.3332 37.4129 59.0795 36.6667 59.9999 36.6667C60.9203 36.6667 61.6666 37.4129 61.6666 38.3333C61.6666 39.2538 60.9203 40 59.9999 40ZM68.3332 36.6667H64.7149C64.6949 36.61 64.6649 36.56 64.6432 36.5C64.6066 36.4067 64.5633 36.3183 64.5216 36.2283C64.4353 36.0438 64.3378 35.8646 64.2299 35.6917C64.1799 35.61 64.1316 35.525 64.0749 35.45C63.9351 35.2531 63.7814 35.0667 63.6149 34.8917C63.5799 34.855 63.5499 34.8133 63.5149 34.7783C63.3089 34.5748 63.0857 34.389 62.8482 34.2233C62.7766 34.1833 62.7033 34.145 62.6349 34.1017C62.4537 33.9877 62.2655 33.8854 62.0716 33.795C61.9799 33.7533 61.8866 33.7167 61.7916 33.68C61.596 33.6044 61.3955 33.5419 61.1916 33.4933C61.0999 33.47 61.0116 33.4433 60.9182 33.4267C60.3135 33.3027 59.6897 33.3027 59.0849 33.4267C58.9916 33.4433 58.9032 33.47 58.8116 33.4933C58.6076 33.5419 58.4072 33.6044 58.2116 33.68C58.1166 33.7167 58.0249 33.7533 57.9332 33.795C57.7385 33.885 57.5497 33.9873 57.3683 34.1017C57.2999 34.145 57.2266 34.1833 57.1599 34.2283C56.9224 34.394 56.6993 34.5798 56.4932 34.7833C56.4583 34.8183 56.4282 34.86 56.3932 34.8967C56.2268 35.0717 56.073 35.2581 55.9333 35.455C55.8783 35.5333 55.8282 35.6217 55.7782 35.6967C55.6703 35.8696 55.5728 36.0487 55.4866 36.2333C55.4432 36.3233 55.4016 36.4117 55.3649 36.505C55.3433 36.56 55.3132 36.61 55.2932 36.6717H44.7149C44.6949 36.615 44.6649 36.565 44.6432 36.505C44.6066 36.4117 44.5632 36.3233 44.5216 36.2333C44.4353 36.0487 44.3378 35.8696 44.2299 35.6967C44.1799 35.615 44.1316 35.53 44.0749 35.455C43.9351 35.2581 43.7814 35.0717 43.6149 34.8967C43.5799 34.86 43.5499 34.8183 43.5149 34.7833C43.3089 34.5798 43.0857 34.394 42.8483 34.2283C42.7816 34.1833 42.7083 34.145 42.6399 34.1017C42.4587 33.9877 42.2705 33.8854 42.0766 33.795C41.9849 33.7533 41.8916 33.7167 41.7966 33.68C41.601 33.6044 41.4005 33.5419 41.1966 33.4933C41.1049 33.47 41.0166 33.4433 40.9233 33.4267C40.3185 33.3027 39.6947 33.3027 39.0899 33.4267C38.9966 33.4433 38.9083 33.47 38.8166 33.4933C38.6126 33.5419 38.4122 33.6044 38.2166 33.68C38.1216 33.7167 38.0299 33.7533 37.9383 33.795C37.7435 33.885 37.5547 33.9873 37.3733 34.1017C37.3049 34.145 37.2316 34.1833 37.1649 34.2283C36.9274 34.394 36.7043 34.5798 36.4983 34.7833C36.4633 34.8183 36.4333 34.86 36.3983 34.8967C36.2318 35.0717 36.078 35.2581 35.9383 35.455C35.8833 35.5333 35.8333 35.6217 35.7833 35.6967C35.6753 35.8696 35.5778 36.0487 35.4916 36.2333C35.4483 36.3233 35.4066 36.4117 35.3699 36.505C35.3483 36.56 35.3183 36.61 35.2983 36.6717H31.6666V31.365L38.6666 29.9667C39.0666 29.8862 39.4228 29.6606 39.6666 29.3333L44.1666 23.3333H59.1666L63.6666 29.3333C63.9814 29.7529 64.4753 30 64.9999 30H68.3332V36.6667Z" fill="#ffffff"/>
<path d="M31.1783 17.155C30.8658 16.8425 30.442 16.6667 29.9999 16.6667H23.3333V20H29.3099L33.8216 24.5117L36.1783 22.155L31.1783 17.155Z" fill="#ffffff"/>
<path d="M93.3333 13.3333H80V16.6667H93.3333V13.3333Z" fill="#ffffff"/>
<path d="M93.3333 20H80V23.3333H93.3333V20Z" fill="#ffffff"/>
<path d="M93.3333 30H80V33.3333H93.3333V30Z" fill="#ffffff"/>
<path d="M93.3333 36.6667H80V40H93.3333V36.6667Z" fill="#ffffff"/>
<path d="M69.9999 16.6667C69.5579 16.6667 69.1341 16.8425 68.8216 17.155L65.4883 20.4883L67.8449 22.845L70.6899 20H76.6666V16.6667H69.9999Z" fill="#ffffff"/>
<path d="M20.0001 13.3333H6.66675V16.6667H20.0001V13.3333Z" fill="#ffffff"/>
<path d="M20.0001 20H6.66675V23.3333H20.0001V20Z" fill="#ffffff"/>
<path d="M20.0001 30H6.66675V33.3333H20.0001V30Z" fill="#ffffff"/>
<path d="M20.0001 36.6667H6.66675V40H20.0001V36.6667Z" fill="#ffffff"/>
<path d="M16.6666 48.3333H9.99992C9.0795 48.3333 8.33325 49.0796 8.33325 50V56.6667C8.33325 57.5871 9.0795 58.3333 9.99992 58.3333H16.6666C17.587 58.3333 18.3333 57.5871 18.3333 56.6667V50C18.3333 49.0796 17.587 48.3333 16.6666 48.3333ZM14.9999 55H11.6666V51.6667H14.9999V55Z" fill="#ffffff"/>
<path d="M36.6667 46.6667H26.6667C25.7462 46.6667 25 47.4129 25 48.3333V58.3333C25 59.2538 25.7462 60 26.6667 60H36.6667C37.5871 60 38.3333 59.2538 38.3333 58.3333V48.3333C38.3333 47.4129 37.5871 46.6667 36.6667 46.6667ZM35 56.6667H28.3333V50H35V56.6667Z" fill="#ffffff"/>
<path d="M53.3333 48.3333H46.6667C45.7462 48.3333 45 49.0796 45 50V56.6667C45 57.5871 45.7462 58.3333 46.6667 58.3333H53.3333C54.2537 58.3333 55 57.5871 55 56.6667V50C55 49.0796 54.2537 48.3333 53.3333 48.3333ZM51.6667 55H48.3333V51.6667H51.6667V55Z" fill="#ffffff"/>
<path d="M71.6666 48.3333H64.9999C64.0795 48.3333 63.3333 49.0796 63.3333 50V56.6667C63.3333 57.5871 64.0795 58.3333 64.9999 58.3333H71.6666C72.587 58.3333 73.3333 57.5871 73.3333 56.6667V50C73.3333 49.0796 72.587 48.3333 71.6666 48.3333ZM69.9999 55H66.6666V51.6667H69.9999V55Z" fill="#ffffff"/>
<path d="M90.0001 48.3333H83.3334C82.413 48.3333 81.6667 49.0796 81.6667 50V56.6667C81.6667 57.5871 82.413 58.3333 83.3334 58.3333H90.0001C90.9205 58.3333 91.6668 57.5871 91.6668 56.6667V50C91.6668 49.0796 90.9205 48.3333 90.0001 48.3333ZM88.3334 55H85.0001V51.6667H88.3334V55Z" fill="#ffffff"/>
<path d="M61.6666 13.3333H38.3333V16.6667H61.6666V13.3333Z" fill="#ffffff"/>
</svg>
