<svg width="100" height="100" viewBox="0 0 100 100" fill="none" xmlns="http://www.w3.org/2000/svg">
<g clip-path="url(#clip0)">
<path d="M33.187 42.2501H30.2573V39.3204H33.187V42.2501ZM28.3042 42.2501H25.3745V39.3204H28.3042V42.2501Z" fill="#ffffff"/>
<path d="M28.8624 57.9779L29.2808 58.6174L29.6992 57.9779C31.8964 54.6195 36.1426 47.9267 39.8413 41.07C41.6904 37.6421 43.4074 34.1645 44.6635 31.037C45.9131 27.9256 46.731 25.1025 46.731 23.0049C46.731 13.382 38.9029 5.55469 29.2808 5.55469C19.6586 5.55469 11.8313 13.382 11.8313 23.0049C11.8313 25.1042 12.6506 27.9304 13.9018 31.0447C15.1595 34.1752 16.8785 37.6557 18.7289 41.0852C22.4302 47.9452 26.6762 54.6363 28.8624 57.9779ZM48.6607 23.0049C48.6607 25.2835 47.7861 28.4003 46.3466 31.9625C44.913 35.51 42.9421 39.4451 40.798 43.3406C36.7221 50.7459 32.0382 57.9762 29.2808 62.0741C26.5233 57.9762 21.8397 50.7459 17.7639 43.3406C15.6199 39.4451 13.6491 35.5101 12.2156 31.9625C10.7761 28.4003 9.90161 25.2835 9.90161 23.0049C9.90161 12.3191 18.5958 3.625 29.2808 3.625C39.9665 3.625 48.6607 12.3191 48.6607 23.0049Z" fill="#ffffff" stroke="#ffffff"/>
<path d="M29.2809 14.059C34.2133 14.059 38.2268 18.0725 38.2268 23.0049C38.2268 27.9366 34.2134 31.9501 29.2809 31.9501C24.3492 31.9501 20.3357 27.9366 20.3357 23.0049C20.3357 18.0724 24.3492 14.059 29.2809 14.059ZM29.2809 15.9886C25.412 15.9886 22.2654 19.1354 22.2654 23.0049C22.2654 26.8737 25.4121 30.0204 29.2809 30.0204C33.1504 30.0204 36.2971 26.8738 36.2971 23.0049C36.2971 19.1353 33.1505 15.9886 29.2809 15.9886Z" fill="#ffffff" stroke="#ffffff"/>
<path d="M62.8969 91.0568L57.687 96.2667H52.2182L41.4356 85.4832L41.2891 85.3368H41.082H22.5338L0.5 63.303V34.3936H9.32056V36.3233H2.92969H2.42969V36.8233V62.2963V62.5034L2.57613 62.6498L23.1869 83.2607L23.3334 83.4071H23.5405H42.088L52.8714 94.1905L53.0178 94.337H53.2249H56.6811H56.8882L57.0346 94.1905L59.8148 91.4104L60.1683 91.0568L59.8148 90.7033L57.6119 88.5004L59.7213 83.4071H82.5909L89.9022 90.7191L90.2557 91.0727L90.6093 90.7192L92.7287 88.5997L92.8752 88.4533V88.2462V85.5171V85.31L92.7287 85.1636L89.5022 81.937L89.5007 75.6976L93.9327 71.2657L94.0791 71.1193V70.9122V47.4697L97.4239 44.1249L97.5703 43.9785V43.7714V39.3944V39.1872L97.4238 39.0408L93.8067 35.4245L93.4532 35.071L93.0997 35.4245L79.6902 48.834H71.9331L59.7409 36.4722L59.5941 36.3233H59.3849H49.2411V34.3936H60.4011L72.5932 46.7554L72.7401 46.9043H72.9492H78.6835H78.8906L79.037 46.7578L93.4532 32.3416L99.5 38.3884V44.7781L96.1553 48.1221L96.0088 48.2685V48.4756V71.9189L91.5776 76.3501L91.4312 76.4965V76.7036V80.9303V81.1374L91.5776 81.2839L94.8049 84.5112V89.2529L90.2558 93.8013L81.9377 85.4832L81.7913 85.3368H81.5842H61.3449H61.0109L60.883 85.6453L60.0156 87.7381L59.8876 88.0467L60.1239 88.283L62.8969 91.0568Z" fill="#ffffff" stroke="#ffffff"/>
</g>
<defs>
<clipPath id="clip0">
<rect width="100" height="100" fill="white"/>
</clipPath>
</defs>
</svg>
